<?xml version="1.0" encoding="utf-8"?>
<!-- Generator: Adobe Illustrator 24.1.1, SVG Export Plug-In . SVG Version: 6.00 Build 0)  -->
<svg version="1.1" xmlns="http://www.w3.org/2000/svg" xmlns:xlink="http://www.w3.org/1999/xlink" x="0px" y="0px"
	 viewBox="0 0 256 256" style="enable-background:new 0 0 256 256;" xml:space="preserve">
<style type="text/css">
	.st0{clip-path:url(#SVGID_2_);fill:url(#SVGID_3_);}
</style>
<g id="Layer_2">
</g>
<g id="Layer_1">
	<g>
		<defs>
			<path id="SVGID_1_" d="M152,64c0,13.25-10.75,24-24,24s-24-10.75-24-24s10.75-24,24-24S152,50.75,152,64z M224,111.99v80.02
				c0,8.83-7.16,15.99-15.99,15.99H47.99C39.16,208,32,200.84,32,192.01v-80.02C32,103.16,39.16,96,47.99,96h160.02
				C216.84,96,224,103.16,224,111.99z M192.01,112H63.99C55.16,112,48,119.16,48,127.99v48.02c0,8.83,7.16,15.99,15.99,15.99h128.02
				c8.83,0,15.99-7.16,15.99-15.99v-48.02C208,119.16,200.84,112,192.01,112z M88,128c-13.25,0-24,10.75-24,24s10.75,24,24,24
				s24-10.75,24-24S101.25,128,88,128z M168,128c-13.25,0-24,10.75-24,24s10.75,24,24,24s24-10.75,24-24S181.25,128,168,128z"/>
		</defs>
		<clipPath id="SVGID_2_">
			<use xlink:href="#SVGID_1_"  style="overflow:visible;"/>
		</clipPath>
		<linearGradient id="SVGID_3_" gradientUnits="userSpaceOnUse" x1="37.5" y1="33.5" x2="217.5" y2="213.5">
			<stop  offset="0" style="stop-color:#FF0000"/>
			<stop  offset="1" style="stop-color:#FFFF00"/>
		</linearGradient>
		<rect x="31.5" y="39.5" class="st0" width="192" height="168"/>
	</g>
</g>
</svg>
