<?xml version="1.0" encoding="utf-8"?>
<!-- Generator: Adobe Illustrator 25.0.0, SVG Export Plug-In . SVG Version: 6.00 Build 0)  -->
<svg version="1.1" id="Layer_1" xmlns="http://www.w3.org/2000/svg" xmlns:xlink="http://www.w3.org/1999/xlink" x="0px" y="0px"
	 viewBox="0 0 36 36" style="enable-background:new 0 0 36 36;" xml:space="preserve">
<style type="text/css">
	.st0{fill:#FFFFFF;}
</style>
<path class="st0" d="M18,2C9.2,2,2,9.2,2,18s7.2,16,16,16s16-7.2,16-16S26.8,2,18,2z M18,32c-7.7,0-14-6.3-14-14S10.3,4,18,4
	s14,6.3,14,14S25.7,32,18,32z"/>
<path class="st0" d="M18.3,8.9c-2.2,0-4.3,0.9-5.7,2.6c-0.2,0.2-0.3,0.4-0.3,0.7c0,0.5,0.4,0.9,0.9,0.9c0,0,0,0,0,0
	c0.3,0,0.5-0.1,0.7-0.3c1.1-1.3,2.7-2,4.3-2c2.4,0,3.8,1.5,3.8,3.4v0.1c0,2.2-1.8,3.4-4.5,3.7c-0.4,0-0.8,0.4-0.8,0.8
	c0,0,0,0.1,0,0.1c0,0,0,2.3,0,2.8c0.1,0.5,0.5,0.9,1,0.9h0.1c0.5-0.1,0.9-0.5,0.9-1v-2.1c3-0.4,5.4-2,5.4-5.3v-0.1
	C24.2,11.1,21.8,8.9,18.3,8.9z"/>
<circle class="st0" cx="17.8" cy="26.2" r="1.3"/>
</svg>
