<?xml version="1.0" encoding="utf-8"?>
<!-- Generator: Adobe Illustrator 24.1.1, SVG Export Plug-In . SVG Version: 6.00 Build 0)  -->
<svg version="1.1" id="Layer_1" xmlns="http://www.w3.org/2000/svg" xmlns:xlink="http://www.w3.org/1999/xlink" x="0px" y="0px"
	 viewBox="0 0 300 300" style="enable-background:new 0 0 300 300;" xml:space="preserve">
<style type="text/css">
	.st0{fill:none;stroke:#000000;stroke-miterlimit:10;}
</style>
<polygon class="st0" points="153.5,242.5 153.5,132.5 73.5,109.5 73.5,219.5 "/>
<polygon class="st0" points="153.5,242.49 153.5,132.49 233.5,109.49 233.5,219.49 "/>
<line class="st0" x1="153.5" y1="78.5" x2="153.5" y2="132.5"/>
<polyline class="st0" points="73.5,109.5 33.5,91.5 113.38,113.93 153.38,131.93 "/>
<polyline class="st0" points="153.53,78.55 184.03,48.05 264,79 233.5,109.5 153.5,78.5 83.5,105.5 "/>
<polygon class="st0" points="172.71,213.95 172.71,150.31 219,137 219,200.64 "/>
<polygon class="st0" points="183.98,203.38 183.98,164.74 192.27,162.43 192.27,201.07 "/>
<polygon class="st0" points="175.5,166.5 175.5,156.5 192.5,151.5 201.5,159.5 "/>
<polygon class="st0" points="206.92,197.25 206.92,175.61 215.21,173.3 215.21,194.94 "/>
<polygon class="st0" points="208.92,174.81 208.92,146.16 213.21,144.86 213.21,173.5 "/>
</svg>
