<?xml version="1.0" encoding="utf-8"?>
<!-- Generator: Adobe Illustrator 24.1.1, SVG Export Plug-In . SVG Version: 6.00 Build 0)  -->
<svg version="1.1" id="Layer_1" xmlns="http://www.w3.org/2000/svg" xmlns:xlink="http://www.w3.org/1999/xlink" x="0px" y="0px"
	 viewBox="0 0 273 54" style="enable-background:new 0 0 273 54;" xml:space="preserve">
<style type="text/css">
	.st0{clip-path:url(#SVGID_2_);fill:url(#SVGID_3_);}
</style>
<g>
	<defs>
		<path id="SVGID_1_" d="M51.73,36.15c5.11,6.19,16.35,6.48,16.71,1.01c0.14-2.88-4.54-4.54-8.71-5.11
			c-8.21-1.3-15.7-6.48-15.7-16.2c0-10.01,9.07-15.27,18.43-15.27c6.19,0,12.17,1.73,17.43,8.14l-8.42,6.48
			c-5.33-5.69-14.47-5.47-14.69,0.43c0.14,2.45,2.81,3.89,6.77,4.75c9.07,1.66,18.15,4.82,17.57,17.35C80.67,47.6,70.3,53,60.94,53
			c-6.12,0-12.6-3.1-17.35-9.22L51.73,36.15z M129.06,52.28h-13.83l-3.31-10.23H98.31l-3.17,10.23H81.32L99.1,1.3h11.74
			L129.06,52.28z M108.82,30.61l-3.53-14.91h-0.36l-3.74,14.91H108.82z M175.35,25.13c6.98,3.53,7.85,10.08,7.2,13.97
			c-1.3,8.21-6.84,13.18-18.15,13.18H143.6V1.3h20.45c9.72,0,16.85,5.83,16.56,15.55C180.54,19.16,179.02,23.26,175.35,25.13z
			 M164.05,21.25c6.26,0,6.48-9.07,0-9.07h-7.49v9.07H164.05z M164.05,40.98c7.78,0,7.63-10.44,0-10.44h-7.49v10.44H164.05z
			 M187.3,18.08c0-11.74,10.51-17.5,21.1-17.5s21.17,5.83,21.17,17.5V35.5c0,11.67-10.51,17.5-21.1,17.5s-21.17-5.83-21.17-17.5
			V18.08z M200.19,35.5c0,3.74,4.18,5.54,8.28,5.54c4.1,0,8.21-1.87,8.21-5.54V18.08c0-3.96-4.25-5.76-8.42-5.76
			c-4.03,0-8.06,2.02-8.06,5.76V35.5z M259.52,13.47v38.81h-13.03V13.47h-13.54V1.23h40.11v12.24H259.52z M19.35,1.08H0.38v21.31
			l12.63,11.37V13.08h6.74c4.28,0,6.4,2.06,6.4,5.37v15.82c0,3.31-2,5.54-6.4,5.54H0.32v12.05h18.97C29.46,51.92,39,46.84,39,35.18
			V18.16C39.06,6.28,29.52,1.08,19.35,1.08z"/>
	</defs>
	<clipPath id="SVGID_2_">
		<use xlink:href="#SVGID_1_"  style="overflow:visible;"/>
	</clipPath>
	<linearGradient id="SVGID_3_" gradientUnits="userSpaceOnUse" x1="54.75" y1="-54.75" x2="218.25" y2="108.75">
		<stop  offset="0" style="stop-color:#FF0000"/>
		<stop  offset="1" style="stop-color:#FFFF00"/>
	</linearGradient>
	<rect x="0" class="st0" width="273" height="54"/>
</g>
</svg>
