<?xml version="1.0" encoding="utf-8"?>
<!-- Generator: Adobe Illustrator 23.0.1, SVG Export Plug-In . SVG Version: 6.00 Build 0)  -->
<svg version="1.1" xmlns="http://www.w3.org/2000/svg" xmlns:xlink="http://www.w3.org/1999/xlink" x="0px" y="0px"
	 viewBox="0 0 50 50" style="enable-background:new 0 0 50 50;" xml:space="preserve">
<style type="text/css">
	.st0{fill:#FFFFFF;stroke:#000000;stroke-miterlimit:10;}
	.st1{fill:none;stroke:#000000;stroke-miterlimit:10;}
</style>
<g id="Layer_2">
	<path class="st0" d="M10.64,13.78c-1.45-1.45-3.56-1.82-5.36-1.12c0.93,0.93,2.61,2.61,3.31,3.31c0.55,0.55-0.03,2.01-0.42,2.4
		c-0.4,0.4-1.85,0.98-2.4,0.42c-0.7-0.7-2.38-2.38-3.31-3.31c-0.7,1.79-0.33,3.91,1.12,5.36s3.56,1.82,5.36,1.12l8.78,8.78
		l2.83-2.83l-8.78-8.78C12.46,17.35,12.09,15.23,10.64,13.78z"/>
	<polygon class="st0" points="15.55,18.14 14.14,19.55 15.55,22.38 16.27,21.66 25.42,30.81 26.86,29.45 17.67,20.26 18.38,19.55 	
		"/>
	<g>
		<path class="st0" d="M35.96,12.49c-1.03-1.03,4.63,0.38,5.66,1.41c1.41,1.41,4.24,4.24,4.24,4.24l-0.71,0.71l1.41,1.41l0.71-0.71
			l1.41,1.41l-3.54,3.54l-1.41-1.41l1.41-1.41l-1.41-1.41l-1.41,1.41l-4.24-4.24l1.41-1.41C39.5,16.02,36.67,13.19,35.96,12.49z"/>
		
			<rect x="26.72" y="24.14" transform="matrix(0.7071 -0.7071 0.7071 0.7071 -7.7839 31.9905)" class="st0" width="16" height="2.5"/>
	</g>
	<polygon class="st0" points="35.86,20.55 34.45,19.14 31.62,20.55 32.34,21.27 23.19,30.42 24.55,31.86 33.74,22.67 34.45,23.38 	
		"/>
</g>
<g id="Outline">
	<rect x="9.5" y="24.5" class="st0" width="32" height="14"/>
	<polyline class="st1" points="9.5,24.5 9.5,15.5 41.5,15.5 41.5,25 	"/>
</g>
</svg>
