<?xml version="1.0" encoding="utf-8"?>
<!-- Generator: Adobe Illustrator 25.0.0, SVG Export Plug-In . SVG Version: 6.00 Build 0)  -->
<svg version="1.1" id="Layer_1" xmlns="http://www.w3.org/2000/svg" xmlns:xlink="http://www.w3.org/1999/xlink" x="0px" y="0px"
	 viewBox="0 0 273 54" style="enable-background:new 0 0 273 54;" xml:space="preserve">
<style type="text/css">
	.st0{clip-path:url(#SVGID_2_);}
</style>
<g>
	<g>
		<defs>
			<path id="SVGID_1_" d="M51.7,36.2c5.1,6.2,16.4,6.5,16.7,1c0.1-2.9-4.5-4.5-8.7-5.1C51.5,30.8,44,25.6,44,15.8
				c0-10,9.1-15.3,18.4-15.3c6.2,0,12.2,1.7,17.4,8.1l-8.4,6.5C66.1,9.5,57,9.7,56.8,15.6c0.1,2.5,2.8,3.9,6.8,4.8
				c9.1,1.7,18.2,4.8,17.6,17.4C80.7,47.6,70.3,53,60.9,53c-6.1,0-12.6-3.1-17.4-9.2L51.7,36.2z M129.1,52.3h-13.8L111.9,42H98.3
				l-3.2,10.2H81.3l17.8-51h11.7L129.1,52.3z M108.8,30.6l-3.5-14.9h-0.4l-3.7,14.9H108.8z M175.4,25.1c7,3.5,7.9,10.1,7.2,14
				c-1.3,8.2-6.8,13.2-18.1,13.2h-20.8v-51h20.4c9.7,0,16.9,5.8,16.6,15.6C180.5,19.2,179,23.3,175.4,25.1z M164.1,21.3
				c6.3,0,6.5-9.1,0-9.1h-7.5v9.1H164.1z M164.1,41c7.8,0,7.6-10.4,0-10.4h-7.5V41H164.1z M187.3,18.1c0-11.7,10.5-17.5,21.1-17.5
				s21.2,5.8,21.2,17.5v17.4c0,11.7-10.5,17.5-21.1,17.5s-21.2-5.8-21.2-17.5V18.1z M200.2,35.5c0,3.7,4.2,5.5,8.3,5.5
				s8.2-1.9,8.2-5.5V18.1c0-4-4.3-5.8-8.4-5.8c-4,0-8.1,2-8.1,5.8L200.2,35.5L200.2,35.5z M259.5,13.5v38.8h-13V13.5h-13.5V1.2h40.1
				v12.2C273.1,13.5,259.5,13.5,259.5,13.5z M19.4,1.1h-19v21.3L13,33.8V13.1h6.7c4.3,0,6.4,2.1,6.4,5.4v15.8c0,3.3-2,5.5-6.4,5.5
				H0.3v12h19c10.2,0.1,19.7-5,19.7-16.7v-17C39.1,6.3,29.5,1.1,19.4,1.1z"/>
		</defs>
		<use xlink:href="#SVGID_1_"  style="overflow:visible;"/>
		<clipPath id="SVGID_2_">
			<use xlink:href="#SVGID_1_"  style="overflow:visible;"/>
		</clipPath>
		<rect class="st0" width="273" height="54"/>
	</g>
</g>
</svg>
