<?xml version="1.0" encoding="utf-8"?>
<!-- Generator: Adobe Illustrator 25.0.0, SVG Export Plug-In . SVG Version: 6.00 Build 0)  -->
<svg version="1.1" id="Layer_1" xmlns="http://www.w3.org/2000/svg" xmlns:xlink="http://www.w3.org/1999/xlink" x="0px" y="0px"
	 viewBox="0 0 481.4 362.1" style="enable-background:new 0 0 481.4 362.1;" xml:space="preserve">
<style type="text/css">
	.st0{clip-path:url(#SVGID_2_);fill:url(#SVGID_3_);}
	.st1{clip-path:url(#SVGID_5_);fill:url(#SVGID_6_);}
</style>
<g id="Layer_1_1_">
	<g>
		<g>
			<defs>
				<path id="SVGID_1_" d="M264.7,72c0,13.3-10.7,24-24,24s-24-10.8-24-24s10.8-24,24-24S264.7,58.8,264.7,72z M336.7,120v80
					c0,8.8-7.2,16-16,16h-160c-8.8,0-16-7.2-16-16v-80c0-8.8,7.2-16,16-16h160C329.5,104,336.7,111.2,336.7,120z M304.7,120h-128
					c-8.8,0-16,7.2-16,16v48c0,8.8,7.2,16,16,16h128c8.8,0,16-7.2,16-16v-48C320.7,127.2,313.5,120,304.7,120z M200.7,136
					c-13.3,0-24,10.8-24,24s10.8,24,24,24s24-10.8,24-24S213.9,136,200.7,136z M280.7,136c-13.3,0-24,10.8-24,24s10.8,24,24,24
					s24-10.8,24-24S293.9,136,280.7,136z"/>
			</defs>
			<clipPath id="SVGID_2_">
				<use xlink:href="#SVGID_1_"  style="overflow:visible;"/>
			</clipPath>
			
				<linearGradient id="SVGID_3_" gradientUnits="userSpaceOnUse" x1="150.1974" y1="451.6457" x2="330.1974" y2="271.6457" gradientTransform="matrix(1 0 0 -1 0 493.1457)">
				<stop  offset="0" style="stop-color:#ED2224"/>
				<stop  offset="1" style="stop-color:#F6EB16"/>
			</linearGradient>
			<rect x="144.2" y="47.5" class="st0" width="192" height="168"/>
		</g>
	</g>
</g>
<g>
	<g>
		<defs>
			<path id="SVGID_4_" d="M120.6,290.3c7.2,8.7,23.1,9.2,23.6,1.4c0.2-4.1-6.4-6.4-12.3-7.2c-11.6-1.8-22.2-9.2-22.2-22.9
				c0-14.1,12.8-21.6,26-21.6c8.7,0,17.2,2.4,24.6,11.5l-11.9,9.2c-7.5-8-20.4-7.7-20.8,0.6c0.2,3.5,4,5.5,9.6,6.7
				c12.8,2.3,25.6,6.8,24.8,24.5c-0.6,13.9-15.3,21.6-28.5,21.6c-8.6,0-17.8-4.4-24.5-13L120.6,290.3z M229.9,313.1h-19.5l-4.7-14.5
				h-19.2l-4.5,14.5h-19.5l25.1-72h16.6L229.9,313.1z M201.3,282.4l-5-21.1h-0.5l-5.3,21.1H201.3z M295.3,274.7
				c9.9,5,11.1,14.2,10.2,19.7c-1.8,11.6-9.7,18.6-25.6,18.6h-29.4v-72h28.9c13.7,0,23.8,8.2,23.4,22
				C302.7,266.3,300.5,272,295.3,274.7z M279.4,269.2c8.8,0,9.2-12.8,0-12.8h-10.6v12.8H279.4z M279.4,297.1c11,0,10.8-14.8,0-14.8
				h-10.6v14.8H279.4z M312.2,264.7c0-16.6,14.9-24.7,29.8-24.7s29.9,8.2,29.9,24.7v24.6c0,16.5-14.9,24.7-29.8,24.7
				c-15,0-29.9-8.2-29.9-24.7V264.7z M330.4,289.3c0,5.3,5.9,7.8,11.7,7.8c5.8,0,11.6-2.6,11.6-7.8v-24.6c0-5.6-6-8.1-11.9-8.1
				c-5.7,0-11.4,2.9-11.4,8.1L330.4,289.3L330.4,289.3z M414.3,258.2v54.8h-18.4v-54.8h-19.1v-17.3h56.7v17.3
				C433.4,258.2,414.3,258.2,414.3,258.2z M74.9,240.7H48.1v30.1l17.8,16.1v-29.2h9.5c6,0,9,2.9,9,7.6v22.4c0,4.7-2.8,7.8-9,7.8H48
				v17h26.8c14.4,0.1,27.9-7.1,27.9-23.6v-24.1C102.7,248.1,89.3,240.7,74.9,240.7z"/>
		</defs>
		<clipPath id="SVGID_5_">
			<use xlink:href="#SVGID_4_"  style="overflow:visible;"/>
		</clipPath>
		
			<linearGradient id="SVGID_6_" gradientUnits="userSpaceOnUse" x1="124.9122" y1="331.3297" x2="355.9456" y2="100.2963" gradientTransform="matrix(1 0 0 -1 0 493.1457)">
			<stop  offset="0" style="stop-color:#ED2224"/>
			<stop  offset="1" style="stop-color:#F6EB16"/>
		</linearGradient>
		<rect x="47.5" y="239.2" class="st1" width="385.8" height="76.3"/>
	</g>
</g>
</svg>
