<?xml version="1.0" encoding="utf-8"?>
<!-- Generator: Adobe Illustrator 25.0.0, SVG Export Plug-In . SVG Version: 6.00 Build 0)  -->
<svg version="1.1" id="Layer_1" xmlns="http://www.w3.org/2000/svg" xmlns:xlink="http://www.w3.org/1999/xlink" x="0px" y="0px"
	 viewBox="0 0 256 256" style="enable-background:new 0 0 256 256;" xml:space="preserve">
<style type="text/css">
	.st0{clip-path:url(#SVGID_2_);fill:#FFFFFF;}
</style>
<g id="Layer_2_1_">
</g>
<g id="Layer_1_1_">
	<g>
		<g>
			<defs>
				<path id="SVGID_1_" d="M152,64c0,13.3-10.8,24-24,24s-24-10.8-24-24s10.8-24,24-24S152,50.8,152,64z M224,112v80
					c0,8.8-7.2,16-16,16H48c-8.8,0-16-7.2-16-16v-80c0-8.8,7.2-16,16-16h160C216.8,96,224,103.2,224,112z M192,112H64
					c-8.8,0-16,7.2-16,16v48c0,8.8,7.2,16,16,16h128c8.8,0,16-7.2,16-16v-48C208,119.2,200.8,112,192,112z M88,128
					c-13.3,0-24,10.8-24,24s10.8,24,24,24s24-10.8,24-24S101.3,128,88,128z M168,128c-13.3,0-24,10.8-24,24s10.8,24,24,24
					s24-10.8,24-24S181.3,128,168,128z"/>
			</defs>
			<use xlink:href="#SVGID_1_"  style="overflow:visible;fill:#FFFFFF;"/>
			<clipPath id="SVGID_2_">
				<use xlink:href="#SVGID_1_"  style="overflow:visible;"/>
			</clipPath>
			<rect x="31.5" y="39.5" class="st0" width="192" height="168"/>
		</g>
	</g>
</g>
</svg>
