<?xml version="1.0" encoding="UTF-8" standalone="no"?>
<svg
   xmlns:dc="http://purl.org/dc/elements/1.1/"
   xmlns:cc="http://creativecommons.org/ns#"
   xmlns:rdf="http://www.w3.org/1999/02/22-rdf-syntax-ns#"
   xmlns:svg="http://www.w3.org/2000/svg"
   xmlns="http://www.w3.org/2000/svg"
   xmlns:sodipodi="http://sodipodi.sourceforge.net/DTD/sodipodi-0.dtd"
   xmlns:inkscape="http://www.inkscape.org/namespaces/inkscape"
   version="1.1"
   id="svg2"
   xml:space="preserve"
   width="163.54266"
   height="135.86667"
   viewBox="0 0 163.54266 135.86667"
   sodipodi:docname="ggtylerr square black.ai"><metadata
     id="metadata8"><rdf:RDF><cc:Work
         rdf:about=""><dc:format>image/svg+xml</dc:format><dc:type
           rdf:resource="http://purl.org/dc/dcmitype/StillImage" /></cc:Work></rdf:RDF></metadata><defs
     id="defs6" /><sodipodi:namedview
     pagecolor="#ffffff"
     bordercolor="#666666"
     borderopacity="1"
     objecttolerance="10"
     gridtolerance="10"
     guidetolerance="10"
     inkscape:pageopacity="0"
     inkscape:pageshadow="2"
     inkscape:window-width="640"
     inkscape:window-height="480"
     id="namedview4" /><g
     id="g10"
     inkscape:groupmode="layer"
     inkscape:label="ggtylerr square black"
     transform="matrix(1.3333333,0,0,-1.3333333,0,135.86667)"><g
       aria-label="gg"
       transform="matrix(1,0,0,-1,34.5542,37.5498)"
       id="text14"
       style="font-variant:normal;font-weight:100;font-stretch:normal;font-size:50px;font-family:'Roboto Thin';-inkscape-font-specification:Roboto-Thin;writing-mode:lr-tb;fill:#231f20;fill-opacity:1;fill-rule:nonzero;stroke:none"><path
         d="m 2.9541016,-13.476563 q 0,-6.323242 2.6611328,-9.863281 2.6611328,-3.564453 7.2998046,-3.564453 2.954102,0 5.249023,1.367188 2.294922,1.342773 3.686524,3.955078 v -4.833985 h 1.342773 v 25.95214881 q 0,5.22460939 -2.685547,8.15429689 -2.685546,2.9541013 -7.299804,2.9541013 -2.661133,0 -4.8828127,-1.1474607 Q 6.1279297,8.3496094 4.5654297,6.2011719 L 5.4931641,5.3222656 q 1.5380859,1.953125 3.3691406,2.9785157 1.8310543,1.0498046 4.2968753,1.0498046 4.077148,0 6.347656,-2.4902343 2.270508,-2.4658204 2.34375,-6.98242191 V -4.1748047 q -1.367188,2.2460938 -3.710938,3.46679689 -2.319335,1.19628906 -5.273437,1.19628906 -4.5898438,0 -7.2509766,-3.63769535 -2.6611328,-3.6376953 -2.6611328,-9.9853519 z m 1.3427734,0.512696 q 0,5.6640623 2.2460937,8.9111326 2.2460938,3.22265627 6.2988283,3.22265627 3.344726,0 5.688476,-1.53808597 2.34375,-1.5625 3.320313,-4.3701171 V -18.725586 q -2.148438,-6.860351 -8.959961,-6.860351 -4.0771484,0 -6.3476563,3.198242 -2.2460937,3.198242 -2.2460937,9.423828 z"
         id="path16" /><path
         d="m 30.354101,-13.476563 q 0,-6.323242 2.661133,-9.863281 2.661133,-3.564453 7.299805,-3.564453 2.954101,0 5.249023,1.367188 2.294922,1.342773 3.686524,3.955078 v -4.833985 h 1.342773 v 25.95214881 q 0,5.22460939 -2.685547,8.15429689 -2.685547,2.9541013 -7.299805,2.9541013 -2.661132,0 -4.882812,-1.1474607 -2.197266,-1.1474609 -3.759766,-3.2958984 l 0.927735,-0.8789063 q 1.538086,1.953125 3.36914,2.9785157 1.831055,1.0498046 4.296875,1.0498046 4.077149,0 6.347657,-2.4902343 2.270507,-2.4658204 2.34375,-6.98242191 V -4.1748047 q -1.367188,2.2460938 -3.710938,3.46679689 -2.319336,1.19628906 -5.273437,1.19628906 -4.589844,0 -7.250977,-3.63769535 -2.661133,-3.6376953 -2.661133,-9.9853519 z m 1.342774,0.512696 q 0,5.6640623 2.246093,8.9111326 2.246094,3.22265627 6.298828,3.22265627 3.344727,0 5.688477,-1.53808597 2.34375,-1.5625 3.320313,-4.3701171 V -18.725586 q -2.148438,-6.860351 -8.959961,-6.860351 -4.077149,0 -6.347657,3.198242 -2.246093,3.198242 -2.246093,9.423828 z"
         id="path18" /></g></g></svg>
