<?xml version="1.0" encoding="UTF-8" standalone="no"?>
<svg
   xmlns:dc="http://purl.org/dc/elements/1.1/"
   xmlns:cc="http://creativecommons.org/ns#"
   xmlns:rdf="http://www.w3.org/1999/02/22-rdf-syntax-ns#"
   xmlns:svg="http://www.w3.org/2000/svg"
   xmlns="http://www.w3.org/2000/svg"
   xmlns:sodipodi="http://sodipodi.sourceforge.net/DTD/sodipodi-0.dtd"
   xmlns:inkscape="http://www.inkscape.org/namespaces/inkscape"
   version="1.1"
   id="svg2"
   xml:space="preserve"
   width="312.36133"
   height="135.86667"
   viewBox="0 0 312.36133 135.86667"
   sodipodi:docname="ggtylerr long white.ai"><metadata
     id="metadata8"><rdf:RDF><cc:Work
         rdf:about=""><dc:format>image/svg+xml</dc:format><dc:type
           rdf:resource="http://purl.org/dc/dcmitype/StillImage" /></cc:Work></rdf:RDF></metadata><defs
     id="defs6" /><sodipodi:namedview
     pagecolor="#ffffff"
     bordercolor="#666666"
     borderopacity="1"
     objecttolerance="10"
     gridtolerance="10"
     guidetolerance="10"
     inkscape:pageopacity="0"
     inkscape:pageshadow="2"
     inkscape:window-width="640"
     inkscape:window-height="480"
     id="namedview4" /><g
     id="g10"
     inkscape:groupmode="layer"
     inkscape:label="ggtylerr long white"
     transform="matrix(1.3333333,0,0,-1.3333333,0,135.86667)"><g
       aria-label="ggtylerr"
       transform="matrix(1,0,0,-1,34.0371,37.5498)"
       id="text14"
       style="font-variant:normal;font-weight:100;font-stretch:normal;font-size:50px;font-family:'Roboto Thin';-inkscape-font-specification:Roboto-Thin;writing-mode:lr-tb;fill:#ffffff;fill-opacity:1;fill-rule:nonzero;stroke:none"><path
         d="m 2.9541016,-13.476563 q 0,-6.323242 2.6611328,-9.863281 2.6611328,-3.564453 7.2998046,-3.564453 2.954102,0 5.249023,1.367188 2.294922,1.342773 3.686524,3.955078 v -4.833985 h 1.342773 v 25.95214881 q 0,5.22460939 -2.685547,8.15429689 -2.685546,2.9541013 -7.299804,2.9541013 -2.661133,0 -4.8828127,-1.1474607 Q 6.1279297,8.3496094 4.5654297,6.2011719 L 5.4931641,5.3222656 q 1.5380859,1.953125 3.3691406,2.9785157 1.8310543,1.0498046 4.2968753,1.0498046 4.077148,0 6.347656,-2.4902343 2.270508,-2.4658204 2.34375,-6.98242191 V -4.1748047 q -1.367188,2.2460938 -3.710938,3.46679689 -2.319335,1.19628906 -5.273437,1.19628906 -4.5898438,0 -7.2509766,-3.63769535 -2.6611328,-3.6376953 -2.6611328,-9.9853519 z m 1.3427734,0.512696 q 0,5.6640623 2.2460937,8.9111326 2.2460938,3.22265627 6.2988283,3.22265627 3.344726,0 5.688476,-1.53808597 2.34375,-1.5625 3.320313,-4.3701171 V -18.725586 q -2.148438,-6.860351 -8.959961,-6.860351 -4.0771484,0 -6.3476563,3.198242 -2.2460937,3.198242 -2.2460937,9.423828 z"
         id="path16" /><path
         d="m 30.354101,-13.476563 q 0,-6.323242 2.661133,-9.863281 2.661133,-3.564453 7.299805,-3.564453 2.954101,0 5.249023,1.367188 2.294922,1.342773 3.686524,3.955078 v -4.833985 h 1.342773 v 25.95214881 q 0,5.22460939 -2.685547,8.15429689 -2.685547,2.9541013 -7.299805,2.9541013 -2.661132,0 -4.882812,-1.1474607 -2.197266,-1.1474609 -3.759766,-3.2958984 l 0.927735,-0.8789063 q 1.538086,1.953125 3.36914,2.9785157 1.831055,1.0498046 4.296875,1.0498046 4.077149,0 6.347657,-2.4902343 2.270507,-2.4658204 2.34375,-6.98242191 V -4.1748047 q -1.367188,2.2460938 -3.710938,3.46679689 -2.319336,1.19628906 -5.273437,1.19628906 -4.589844,0 -7.250977,-3.63769535 -2.661133,-3.6376953 -2.661133,-9.9853519 z m 1.342774,0.512696 q 0,5.6640623 2.246093,8.9111326 2.246094,3.22265627 6.298828,3.22265627 3.344727,0 5.688477,-1.53808597 2.34375,-1.5625 3.320313,-4.3701171 V -18.725586 q -2.148438,-6.860351 -8.959961,-6.860351 -4.077149,0 -6.347657,3.198242 -2.246093,3.198242 -2.246093,9.423828 z"
         id="path18" /><path
         d="m 61.95332,-33.544922 v 7.128906 h 6.005859 v 1.342774 H 61.95332 v 18.7499998 q 0,2.8076172 0.90332,4.1503906 0.927734,1.34277347 3.076172,1.34277347 1.074218,0 2.612304,-0.21972657 l 0.219727,1.2451172 q -0.805664,0.29296875 -2.758789,0.29296875 -2.880859,0 -4.125977,-1.58691405 -1.245117,-1.6113281 -1.269531,-5.0537109 V -25.073242 h -4.882812 v -1.342774 h 4.882812 v -7.128906 z"
         id="path20" /><path
         d="m 82.880272,-2.0507813 0.170898,-0.4882812 9.13086,-23.8769535 h 1.464843 L 81.830467,4.5898437 81.24453,6.0546875 q -1.904297,4.6142575 -6.298828,4.6142575 -1.416016,0 -1.953125,-0.268554 L 72.968163,9.1552734 Q 73.749413,9.375 74.750389,9.375 q 2.075195,0 3.442383,-1.2207031 1.367187,-1.1962891 2.368164,-3.9306641 L 82.172264,-0.14648437 71.649803,-26.416016 h 1.44043 z"
         id="path22" /><path
         d="m 100.33496,0 h -1.318358 v -37.5 h 1.318358 z"
         id="path24" /><path
         d="m 118.49629,0.48828125 q -3.19824,0 -5.88379,-1.70898435 -2.66113,-1.7333985 -4.1748,-4.7363281 -1.51367,-3.0029297 -1.51367,-6.6650388 v -1.098633 q 0,-3.662109 1.46484,-6.713867 1.46484,-3.051758 4.02832,-4.760742 2.56348,-1.708985 5.59082,-1.708985 4.41895,0 7.22656,3.149414 2.80762,3.149414 2.80762,8.276367 v 1.391602 h -19.7998 v 1.44043 q 0,3.2226559 1.34277,5.9814449 1.36719,2.734375 3.73535,4.296875 2.39258,1.56250004 5.17578,1.56250004 2.66113,0 4.5166,-0.87890624 1.87989,-0.9033203 3.32032,-2.7587891 l 0.92773,0.6591797 q -2.9541,4.27246095 -8.76465,4.27246095 z M 118.00801,-25.585937 q -3.85742,0 -6.54297,2.880859 -2.68554,2.856445 -3.14941,7.299805 h 18.4082 v -0.317383 q 0,-2.685547 -1.14746,-4.980469 -1.12305,-2.319336 -3.125,-3.588867 -1.97754,-1.293945 -4.44336,-1.293945 z"
         id="path26" /><path
         d="m 145.84473,-25.463867 -1.70899,-0.146485 q -3.36914,0 -5.63965,2.197266 -2.2705,2.172852 -2.97851,6.103516 V 0 h -1.31836 v -26.416016 h 1.31836 v 5.493164 q 1.07422,-2.758789 3.22265,-4.370117 2.14844,-1.611328 5.39551,-1.611328 1.14746,0 1.85547,0.268555 z"
         id="path28" /><path
         d="m 162.54472,-25.463867 -1.70898,-0.146485 q -3.36914,0 -5.63965,2.197266 -2.27051,2.172852 -2.97851,6.103516 V 0 h -1.31836 v -26.416016 h 1.31836 v 5.493164 q 1.07421,-2.758789 3.22265,-4.370117 2.14844,-1.611328 5.39551,-1.611328 1.14746,0 1.85547,0.268555 z"
         id="path30" /></g></g></svg>
