<?xml version="1.0" encoding="UTF-8" standalone="no"?>
<svg
   xmlns:dc="http://purl.org/dc/elements/1.1/"
   xmlns:cc="http://creativecommons.org/ns#"
   xmlns:rdf="http://www.w3.org/1999/02/22-rdf-syntax-ns#"
   xmlns:svg="http://www.w3.org/2000/svg"
   xmlns="http://www.w3.org/2000/svg"
   xmlns:sodipodi="http://sodipodi.sourceforge.net/DTD/sodipodi-0.dtd"
   xmlns:inkscape="http://www.inkscape.org/namespaces/inkscape"
   version="1.1"
   id="svg2"
   xml:space="preserve"
   width="163.54266"
   height="375.79999"
   viewBox="0 0 163.54266 375.79999"
   sodipodi:docname="ggtylerr black.ai"><metadata
     id="metadata8"><rdf:RDF><cc:Work
         rdf:about=""><dc:format>image/svg+xml</dc:format><dc:type
           rdf:resource="http://purl.org/dc/dcmitype/StillImage" /></cc:Work></rdf:RDF></metadata><defs
     id="defs6" /><sodipodi:namedview
     pagecolor="#ffffff"
     bordercolor="#666666"
     borderopacity="1"
     objecttolerance="10"
     gridtolerance="10"
     guidetolerance="10"
     inkscape:pageopacity="0"
     inkscape:pageshadow="2"
     inkscape:window-width="640"
     inkscape:window-height="480"
     id="namedview4" /><g
     id="g10"
     inkscape:groupmode="layer"
     inkscape:label="ggtylerr black"
     transform="matrix(1.3333333,0,0,-1.3333333,0,375.8)"><g
       aria-label="gg
ty
le
rr"
       transform="matrix(1,0,0,-1,34.5542,217.5)"
       id="text20"
       style="font-variant:normal;font-weight:100;font-stretch:normal;font-size:50px;font-family:'Roboto Thin';-inkscape-font-specification:Roboto-Thin;writing-mode:lr-tb;fill:#231f20;fill-opacity:1;fill-rule:nonzero;stroke:none"><path
         d="m 2.9541016,-13.476563 q 0,-6.323242 2.6611328,-9.863281 2.6611328,-3.564453 7.2998046,-3.564453 2.954102,0 5.249023,1.367188 2.294922,1.342773 3.686524,3.955078 v -4.833985 h 1.342773 v 25.95214881 q 0,5.22460939 -2.685547,8.15429689 -2.685546,2.9541013 -7.299804,2.9541013 -2.661133,0 -4.8828127,-1.1474607 Q 6.1279297,8.3496094 4.5654297,6.2011719 L 5.4931641,5.3222656 q 1.5380859,1.953125 3.3691406,2.9785157 1.8310543,1.0498046 4.2968753,1.0498046 4.077148,0 6.347656,-2.4902343 2.270508,-2.4658204 2.34375,-6.98242191 V -4.1748047 q -1.367188,2.2460938 -3.710938,3.46679689 -2.319335,1.19628906 -5.273437,1.19628906 -4.5898438,0 -7.2509766,-3.63769535 -2.6611328,-3.6376953 -2.6611328,-9.9853519 z m 1.3427734,0.512696 q 0,5.6640623 2.2460937,8.9111326 2.2460938,3.22265627 6.2988283,3.22265627 3.344726,0 5.688476,-1.53808597 2.34375,-1.5625 3.320313,-4.3701171 V -18.725586 q -2.148438,-6.860351 -8.959961,-6.860351 -4.0771484,0 -6.3476563,3.198242 -2.2460937,3.198242 -2.2460937,9.423828 z"
         id="path22" /><path
         d="m 30.354101,-13.476563 q 0,-6.323242 2.661133,-9.863281 2.661133,-3.564453 7.299805,-3.564453 2.954101,0 5.249023,1.367188 2.294922,1.342773 3.686524,3.955078 v -4.833985 h 1.342773 v 25.95214881 q 0,5.22460939 -2.685547,8.15429689 -2.685547,2.9541013 -7.299805,2.9541013 -2.661132,0 -4.882812,-1.1474607 -2.197266,-1.1474609 -3.759766,-3.2958984 l 0.927735,-0.8789063 q 1.538086,1.953125 3.36914,2.9785157 1.831055,1.0498046 4.296875,1.0498046 4.077149,0 6.347657,-2.4902343 2.270507,-2.4658204 2.34375,-6.98242191 V -4.1748047 q -1.367188,2.2460938 -3.710938,3.46679689 -2.319336,1.19628906 -5.273437,1.19628906 -4.589844,0 -7.250977,-3.63769535 -2.661133,-3.6376953 -2.661133,-9.9853519 z m 1.342774,0.512696 q 0,5.6640623 2.246093,8.9111326 2.246094,3.22265627 6.298828,3.22265627 3.344727,0 5.688477,-1.53808597 2.34375,-1.5625 3.320313,-4.3701171 V -18.725586 q -2.148438,-6.860351 -8.959961,-6.860351 -4.077149,0 -6.347657,3.198242 -2.246093,3.198242 -2.246093,9.423828 z"
         id="path24" /><path
         d="m 14.703321,26.455078 v 7.128906 h 6.005859 v 1.342774 h -6.005859 v 18.75 q 0,2.807617 0.90332,4.15039 0.927734,1.342774 3.076172,1.342774 1.074218,0 2.612304,-0.219727 l 0.219727,1.245117 q -0.805664,0.292969 -2.758789,0.292969 -2.880859,0 -4.125977,-1.586914 -1.245117,-1.611328 -1.269531,-5.053711 V 34.926758 H 8.4777346 v -1.342774 h 4.8828124 v -7.128906 z"
         id="path26" /><path
         d="m 35.630274,57.949219 0.170898,-0.488282 9.13086,-23.876953 h 1.464843 l -11.816406,31.00586 -0.585937,1.464843 q -1.904297,4.614258 -6.298828,4.614258 -1.416016,0 -1.953125,-0.268554 l -0.02441,-1.245118 q 0.78125,0.219727 1.782227,0.219727 2.075195,0 3.442383,-1.220703 1.367187,-1.196289 2.368164,-3.930664 L 34.922266,59.853516 24.399805,33.583984 h 1.44043 z"
         id="path28" /><path
         d="m 15.484961,120 h -1.31836 V 82.5 h 1.31836 z"
         id="path30" /><path
         d="m 33.64629,120.48828 q -3.198242,0 -5.883789,-1.70898 -2.661133,-1.7334 -4.174805,-4.73633 -1.513672,-3.00293 -1.513672,-6.66504 v -1.09863 q 0,-3.66211 1.464844,-6.71387 1.464844,-3.051758 4.02832,-4.760743 2.563477,-1.708984 5.590821,-1.708984 4.418945,0 7.226562,3.149414 2.807617,3.149414 2.807617,8.276363 v 1.39161 H 23.392384 v 1.44043 q 0,3.22265 1.342773,5.98144 1.367188,2.73438 3.735352,4.29688 2.392578,1.5625 5.175781,1.5625 2.661133,0 4.516601,-0.87891 1.879883,-0.90332 3.320313,-2.75879 l 0.927734,0.65918 q -2.954101,4.27246 -8.764648,4.27246 z M 33.158009,94.414062 q -3.857422,0 -6.542969,2.88086 -2.685547,2.856448 -3.149414,7.299808 h 18.408203 v -0.31739 q 0,-2.68554 -1.147461,-4.980465 -1.123047,-2.319336 -3.125,-3.588867 -1.977539,-1.293946 -4.443359,-1.293946 z"
         id="path32" /><path
         d="m 26.544726,154.53613 -1.708984,-0.14648 q -3.369141,0 -5.639648,2.19726 -2.270508,2.17286 -2.978516,6.10352 V 180 h -1.318359 v -26.41602 h 1.318359 v 5.49317 q 1.074219,-2.75879 3.222656,-4.37012 2.148438,-1.61133 5.395508,-1.61133 1.147461,0 1.855469,0.26856 z"
         id="path34" /><path
         d="m 43.244726,154.53613 -1.708984,-0.14648 q -3.369141,0 -5.639649,2.19726 -2.270507,2.17286 -2.978515,6.10352 V 180 h -1.31836 v -26.41602 h 1.31836 v 5.49317 q 1.074218,-2.75879 3.222656,-4.37012 2.148437,-1.61133 5.395508,-1.61133 1.147461,0 1.855469,0.26856 z"
         id="path36" /></g></g></svg>
